<svg width="69" height="69" viewBox="0 0 69 69" fill="none" xmlns="http://www.w3.org/2000/svg">
<circle cx="34.5" cy="34.5" r="34.5" fill="#F4AB7A"/>
<path d="M42.1249 45.2917H27.8749C27.4377 45.2917 27.0833 45.6462 27.0833 46.0834V50.8334C27.0833 51.2706 27.4377 51.6251 27.8749 51.6251H42.1249C42.5621 51.6251 42.9166 51.2706 42.9166 50.8334V46.0834C42.9166 45.6462 42.5621 45.2917 42.1249 45.2917Z" fill="white"/>
<path d="M45.2917 51.6251H24.7084C24.4985 51.6251 24.2971 51.5417 24.1486 51.3932C24.0002 51.2447 23.9167 51.0434 23.9167 50.8334C23.9167 50.6235 24.0002 50.4221 24.1486 50.2736C24.2971 50.1252 24.4985 50.0417 24.7084 50.0417H45.2917C45.5017 50.0417 45.7031 50.1252 45.8515 50.2736C46 50.4221 46.0834 50.6235 46.0834 50.8334C46.0834 51.0434 46 51.2447 45.8515 51.3932C45.7031 51.5417 45.5017 51.6251 45.2917 51.6251Z" fill="white"/>
<path d="M35.1545 37.3751C35.5917 37.3751 35.9461 37.0206 35.9461 36.5834C35.9461 36.1462 35.5917 35.7917 35.1545 35.7917C34.7172 35.7917 34.3628 36.1462 34.3628 36.5834C34.3628 37.0206 34.7172 37.3751 35.1545 37.3751Z" fill="white"/>
<path d="M41.092 37.3751C41.5292 37.3751 41.8836 37.0206 41.8836 36.5834C41.8836 36.1462 41.5292 35.7917 41.092 35.7917C40.6547 35.7917 40.3003 36.1462 40.3003 36.5834C40.3003 37.0206 40.6547 37.3751 41.092 37.3751Z" fill="white"/>
<path d="M40.2432 31.0417H41.5511L43.1091 26.2917H33.522L34.1157 31.0417H40.2432Z" fill="white"/>
<path d="M31.0068 39.75C31.8461 39.7483 32.6639 40.0152 33.3407 40.5116L33.841 40.8765C34.247 41.1746 34.7378 41.3347 35.2415 41.3333H51.625V22.3333C51.6237 21.2839 51.2063 20.2778 50.4642 19.5358C49.7222 18.7937 48.7161 18.3763 47.6667 18.375H22.3333C21.2839 18.3763 20.2778 18.7937 19.5358 19.5358C18.7937 20.2778 18.3763 21.2839 18.375 22.3333V39.75H31.0068ZM29.4583 35H26.2917C26.0817 35 25.8803 34.9166 25.7319 34.7681C25.5834 34.6197 25.5 34.4183 25.5 34.2083C25.5 33.9984 25.5834 33.797 25.7319 33.6485C25.8803 33.5001 26.0817 33.4167 26.2917 33.4167H29.4583C29.6683 33.4167 29.8697 33.5001 30.0181 33.6485C30.1666 33.797 30.25 33.9984 30.25 34.2083C30.25 34.4183 30.1666 34.6197 30.0181 34.7681C29.8697 34.9166 29.6683 35 29.4583 35ZM29.4583 22.3333H32.3083C32.501 22.3333 32.6871 22.4036 32.8317 22.531C32.9762 22.6584 33.0694 22.8341 33.0937 23.0252L33.3074 24.7083H43.109C43.3592 24.7084 43.6058 24.7677 43.8287 24.8815C44.0515 24.9953 44.2442 25.1602 44.3909 25.3628C44.5377 25.5655 44.6344 25.8 44.673 26.0471C44.7116 26.2943 44.6911 26.5471 44.6132 26.7849L43.0552 31.5349C42.9513 31.8519 42.7499 32.1279 42.4798 32.3237C42.2097 32.5195 41.8846 32.6249 41.551 32.625H33.1182C32.9082 32.625 32.7069 32.7084 32.5584 32.8569C32.41 33.0053 32.3265 33.2067 32.3265 33.4167C32.3265 33.6266 32.41 33.828 32.5584 33.9765C32.7069 34.1249 32.9082 34.2083 33.1182 34.2083H43.4099C43.6198 34.2083 43.8212 34.2917 43.9697 34.4402C44.1181 34.5887 44.2015 34.79 44.2015 35C44.2015 35.21 44.1181 35.4113 43.9697 35.5598C43.8212 35.7083 43.6198 35.7917 43.4099 35.7917H43.3212C43.415 36.0452 43.4643 36.313 43.4669 36.5833C43.4669 37.2132 43.2167 37.8173 42.7713 38.2627C42.3259 38.7081 41.7218 38.9583 41.0919 38.9583C40.462 38.9583 39.8579 38.7081 39.4125 38.2627C38.9671 37.8173 38.7169 37.2132 38.7169 36.5833C38.7198 36.313 38.7693 36.0452 38.8633 35.7917H37.3837C37.4775 36.0452 37.5268 36.313 37.5294 36.5833C37.533 36.9322 37.4598 37.2776 37.3148 37.595C37.1699 37.9124 36.9568 38.1939 36.6907 38.4196C36.4246 38.6453 36.112 38.8096 35.7753 38.9008C35.4385 38.992 35.0857 39.0078 34.7421 38.9472C34.3985 38.8867 34.0725 38.7511 33.7872 38.5502C33.5019 38.3494 33.2644 38.0881 33.0915 37.785C32.9186 37.482 32.8147 37.1445 32.787 36.7967C32.7593 36.4489 32.8086 36.0993 32.9314 35.7727C32.3717 35.731 31.8452 35.4916 31.446 35.0972C31.0468 34.7028 30.8009 34.1792 30.7524 33.6202C30.704 33.0611 30.856 32.503 31.1814 32.0458C31.5068 31.5886 31.9843 31.2621 32.5284 31.1248L31.6109 23.9167H29.4583C29.2484 23.9167 29.047 23.8333 28.8985 23.6848C28.7501 23.5363 28.6667 23.335 28.6667 23.125C28.6667 22.915 28.7501 22.7137 28.8985 22.5652C29.047 22.4167 29.2484 22.3333 29.4583 22.3333ZM26.2917 28.6667H29.4583C29.6683 28.6667 29.8697 28.7501 30.0181 28.8985C30.1666 29.047 30.25 29.2484 30.25 29.4583C30.25 29.6683 30.1666 29.8697 30.0181 30.0181C29.8697 30.1666 29.6683 30.25 29.4583 30.25H26.2917C26.0817 30.25 25.8803 30.1666 25.7319 30.0181C25.5834 29.8697 25.5 29.6683 25.5 29.4583C25.5 29.2484 25.5834 29.047 25.7319 28.8985C25.8803 28.7501 26.0817 28.6667 26.2917 28.6667ZM24.7083 31.0417H27.875C28.085 31.0417 28.2863 31.1251 28.4348 31.2735C28.5833 31.422 28.6667 31.6234 28.6667 31.8333C28.6667 32.0433 28.5833 32.2447 28.4348 32.3931C28.2863 32.5416 28.085 32.625 27.875 32.625H24.7083C24.4984 32.625 24.297 32.5416 24.1485 32.3931C24.0001 32.2447 23.9167 32.0433 23.9167 31.8333C23.9167 31.6234 24.0001 31.422 24.1485 31.2735C24.297 31.1251 24.4984 31.0417 24.7083 31.0417Z" fill="white"/>
<path d="M32.9068 42.155L32.4073 41.7901C32.0012 41.4921 31.5105 41.332 31.0068 41.3333H18.375V42.9166C18.3763 43.966 18.7937 44.9721 19.5358 45.7142C20.2778 46.4562 21.2839 46.8737 22.3333 46.8749H47.6667C48.7161 46.8737 49.7222 46.4562 50.4642 45.7142C51.2063 44.9721 51.6237 43.966 51.625 42.9166H35.2415C34.4019 42.9183 33.5839 42.6514 32.9068 42.155Z" fill="white"/>
</svg>
