<svg width="69" height="69" viewBox="0 0 69 69" fill="none" xmlns="http://www.w3.org/2000/svg">
<circle cx="34.5" cy="34.5" r="34.5" fill="#F4AB7A"/>
<g clip-path="url(#clip0_72_41)">
<path d="M19.3928 43.8214V46.5357C19.3928 46.9104 19.6966 47.2143 20.0714 47.2143C20.4462 47.2143 20.75 46.9104 20.75 46.5357V43.8214C20.75 43.4466 20.4462 43.1428 20.0714 43.1428C19.6966 43.1428 19.3928 43.4466 19.3928 43.8214Z" fill="white"/>
<path d="M50.6072 30.9285H52.6429V39.0713H50.6072V30.9285Z" fill="white"/>
<path d="M38.3928 30.9285H40.4285V39.0713H38.3928V30.9285Z" fill="white"/>
<path d="M26.1787 36.0177C26.1269 35.2453 25.5758 34.5977 24.8215 34.4231V37.6124C25.5758 37.4378 26.1269 36.7902 26.1787 36.0177Z" fill="white"/>
<path d="M44.5 30.9285H46.5357V39.0713H44.5V30.9285Z" fill="white"/>
<path d="M30.3382 18.0357H39.6618C39.9014 18.0357 40.1232 17.9093 40.2454 17.7032L41.2632 16H28.7368L29.7547 17.7032C29.8769 17.9093 30.0987 18.0357 30.3382 18.0357Z" fill="white"/>
<path d="M33.6429 33.6429C33.6429 38.8896 29.3896 43.1429 24.1429 43.1429C23.9122 43.1429 23.6883 43.1429 23.4644 43.1429V45.1786C23.4644 44.8038 23.7682 44.5 24.1429 44.5C24.5177 44.5 24.8215 44.8038 24.8215 45.1786V48.5714C24.8215 48.9462 24.5177 49.25 24.1429 49.25C23.7682 49.25 23.4644 48.9462 23.4644 48.5714V51.2857C23.4644 52.7848 24.6796 54 26.1786 54H43.8215C45.3206 54 46.5358 52.7848 46.5358 51.2857V43.1429H37.7144C36.7291 43.1352 35.8907 42.423 35.7238 41.4519C35.557 40.4808 36.1096 39.5297 37.0358 39.1936V30.8879C36.438 30.7649 35.9529 30.3291 35.7669 29.7479C35.5196 29.0414 35.7584 28.2562 36.3572 27.8071L44.5001 21.7611C45.1025 21.3064 45.9334 21.3064 46.5358 21.7611V18.7143C46.5358 17.2152 45.3206 16 43.8215 16H42.8511L41.4058 18.4021C41.0388 19.0157 40.3768 19.3918 39.6619 19.3929H30.3383C29.6233 19.3918 28.9614 19.0157 28.5944 18.4021L27.149 16H26.1786C24.6796 16 23.4644 17.2152 23.4644 18.7143V24.1768C23.6883 24.1768 23.9122 24.1429 24.1429 24.1429C29.3896 24.1429 33.6429 28.3962 33.6429 33.6429ZM28.8929 46.5357C28.8929 46.9105 28.5891 47.2143 28.2144 47.2143C27.8396 47.2143 27.5358 46.9105 27.5358 46.5357V43.8214C27.5358 43.4467 27.8396 43.1429 28.2144 43.1429C28.5891 43.1429 28.8929 43.4467 28.8929 43.8214V46.5357ZM39.0715 50.6071C39.4463 50.6071 39.7501 50.9109 39.7501 51.2857C39.7501 51.6605 39.4463 51.9643 39.0715 51.9643H30.9286C30.5539 51.9643 30.2501 51.6605 30.2501 51.2857C30.2501 50.9109 30.5539 50.6071 30.9286 50.6071H39.0715Z" fill="white"/>
<path d="M23.4643 29.6731C22.7101 29.8477 22.159 30.4953 22.1072 31.2677C22.159 32.0402 22.7101 32.6878 23.4643 32.8624V29.6731Z" fill="white"/>
<path d="M37.0356 41.107C37.0356 41.4818 37.3395 41.7856 37.7142 41.7856H53.3214C53.6961 41.7856 53.9999 41.4818 53.9999 41.107C53.9999 40.7323 53.6961 40.4285 53.3214 40.4285H37.7142C37.3395 40.4285 37.0356 40.7323 37.0356 41.107Z" fill="white"/>
<path d="M24.1429 41.7857C28.64 41.7857 32.2857 38.14 32.2857 33.6429C32.2857 29.1457 28.64 25.5 24.1429 25.5C19.6457 25.5 16 29.1457 16 33.6429C16 38.14 19.6457 41.7857 24.1429 41.7857ZM20.75 31.2679C20.8165 29.7471 21.9572 28.4895 23.4643 28.2754V28.2143C23.4643 27.8395 23.7681 27.5357 24.1429 27.5357C24.5176 27.5357 24.8214 27.8395 24.8214 28.2143V28.2754C26.3285 28.4895 27.4692 29.7471 27.5357 31.2679C27.5357 31.6426 27.2319 31.9464 26.8571 31.9464C26.4824 31.9464 26.1786 31.6426 26.1786 31.2679C26.1268 30.4954 25.5757 29.8478 24.8214 29.6732V33.0254C26.3285 33.2395 27.4692 34.4971 27.5357 36.0179C27.4692 37.5387 26.3285 38.7962 24.8214 39.0104V39.0714C24.8214 39.4462 24.5176 39.75 24.1429 39.75C23.7681 39.75 23.4643 39.4462 23.4643 39.0714V39.0104C21.9572 38.7962 20.8165 37.5387 20.75 36.0179C20.75 35.6431 21.0538 35.3393 21.4286 35.3393C21.8033 35.3393 22.1071 35.6431 22.1071 36.0179C22.1589 36.7903 22.7101 37.4379 23.4643 37.6125V34.2604C21.9572 34.0462 20.8165 32.7887 20.75 31.2679Z" fill="white"/>
<path d="M45.5179 22.7858C45.4463 22.7846 45.3767 22.8086 45.3211 22.8536L37.185 28.8929C37.054 28.9925 37.002 29.165 37.0561 29.3204C37.099 29.4676 37.2353 29.5677 37.3886 29.5647H53.6743C53.8251 29.5647 53.9578 29.4652 54 29.3204C54.0541 29.165 54.0021 28.9925 53.8711 28.8929L45.7282 22.8468C45.6681 22.8012 45.5931 22.7794 45.5179 22.7858ZM47.2143 26.8572C47.2143 27.2319 46.9105 27.5358 46.5357 27.5358H44.5C44.1252 27.5358 43.8214 27.2319 43.8214 26.8572C43.8214 26.4824 44.1252 26.1786 44.5 26.1786H46.5357C46.9105 26.1786 47.2143 26.4824 47.2143 26.8572Z" fill="white"/>
</g>
<defs>
<clipPath id="clip0_72_41">
<rect width="38" height="38" fill="white" transform="translate(16 16)"/>
</clipPath>
</defs>
</svg>
