<svg width="44" height="44" viewBox="0 0 44 44" fill="none" xmlns="http://www.w3.org/2000/svg">
<circle cx="22" cy="22" r="22" fill="#F4AB7A"/>
<path d="M14.32 24.78V19.34C14.32 16.46 15.52 15 17.92 15C20.32 15 21.54 16.46 21.54 19.34V24.78C21.54 27.74 20.32 29.2 17.92 29.2C15.52 29.2 14.32 27.74 14.32 24.78ZM19.58 27.1C19.9 26.58 20.08 25.72 20.08 24.5V19.7C20.08 18.5 19.9 17.62 19.58 17.1C19.24 16.58 18.68 16.32 17.92 16.32C17.14 16.32 16.58 16.58 16.26 17.1C15.94 17.62 15.78 18.5 15.78 19.7V24.5C15.78 25.72 15.94 26.58 16.26 27.1C16.58 27.62 17.14 27.88 17.92 27.88C18.68 27.88 19.24 27.62 19.58 27.1ZM31.9233 26.3H30.4233V29H28.9633V26.3H23.7833V24.98L27.9233 15.2H29.3833L25.2433 24.98H28.9633V21.22H30.4233V24.98H31.9233V26.3Z" fill="white"/>
</svg>
