<svg width="69" height="69" viewBox="0 0 69 69" fill="none" xmlns="http://www.w3.org/2000/svg">
<circle cx="34.5" cy="34.5" r="34.5" fill="#F4AB7A"/>
<path d="M28.9307 38.534C29.0614 37.7146 29.7715 37.109 30.6099 37.109H34.1011C40.9625 37.109 46.3324 34.3445 47.9022 26.3479C47.9497 26.1104 48.0234 25.6544 48.0234 25.6544C48.4699 22.6951 48.021 20.6883 46.4084 18.8666C44.6367 16.8597 41.4304 16 37.3288 16H25.4252C24.5869 16 23.8744 16.6056 23.7414 17.425L18.7848 48.6111C18.6874 49.2262 19.1672 49.782 19.7942 49.782H27.1424L28.9878 38.1682L28.9307 38.534Z" fill="white"/>
<path d="M34.101 39.2086H30.9708L28.6338 54.0001H33.7115C34.4454 54.0001 35.07 53.4704 35.184 52.7508L35.2434 52.4373L36.4119 45.0962L36.4879 44.6924C36.6019 43.9728 37.2265 43.4432 37.958 43.4432H38.8867C44.8883 43.4432 49.586 41.0254 50.9588 34.0311C51.5098 31.2238 51.2438 28.8702 49.8829 27.1697C48.1777 35.0428 42.7366 39.2086 34.101 39.2086Z" fill="white"/>
</svg>
