<svg width="44" height="44" viewBox="0 0 44 44" fill="none" xmlns="http://www.w3.org/2000/svg">
<circle cx="22" cy="22" r="22" fill="#F4AB7A"/>
<path d="M14.32 24.78V19.34C14.32 16.46 15.52 15 17.92 15C20.32 15 21.54 16.46 21.54 19.34V24.78C21.54 27.74 20.32 29.2 17.92 29.2C15.52 29.2 14.32 27.74 14.32 24.78ZM19.58 27.1C19.9 26.58 20.08 25.72 20.08 24.5V19.7C20.08 18.5 19.9 17.62 19.58 17.1C19.24 16.58 18.68 16.32 17.92 16.32C17.14 16.32 16.58 16.58 16.26 17.1C15.94 17.62 15.78 18.5 15.78 19.7V24.5C15.78 25.72 15.94 26.58 16.26 27.1C16.58 27.62 17.14 27.88 17.92 27.88C18.68 27.88 19.24 27.62 19.58 27.1ZM25.0633 28.32C24.4033 27.72 24.0833 26.92 24.0833 25.9V25.58H25.5433V25.84C25.5433 26.48 25.7233 27 26.1233 27.36C26.5233 27.72 27.0433 27.9 27.7233 27.9C28.4233 27.9 28.9833 27.7 29.3833 27.26C29.7833 26.82 29.9833 26.24 29.9833 25.5V24.98C29.9833 24.22 29.7633 23.62 29.3433 23.18C28.9233 22.74 28.3433 22.5 27.6233 22.5H26.9033V21.18H27.6033C28.2633 21.18 28.7833 20.98 29.1833 20.56C29.5633 20.14 29.7633 19.58 29.7633 18.9V18.5C29.7633 17.84 29.5633 17.3 29.2033 16.9C28.8233 16.5 28.3233 16.3 27.6833 16.3C27.0433 16.3 26.5433 16.5 26.1833 16.86C25.8233 17.24 25.6433 17.74 25.6433 18.36V18.68H24.2433V18.32C24.2433 17.32 24.5433 16.5 25.1633 15.9C25.7833 15.3 26.6433 15 27.7233 15C28.7833 15 29.6233 15.32 30.2633 15.94C30.8833 16.56 31.2033 17.38 31.2033 18.42V18.86C31.2033 19.54 31.0433 20.12 30.7233 20.6C30.4033 21.1 29.9833 21.46 29.4633 21.7C30.1033 21.94 30.5833 22.36 30.9233 22.92C31.2633 23.48 31.4433 24.16 31.4433 24.94V25.42C31.4433 26.58 31.0833 27.5 30.4033 28.18C29.7233 28.86 28.8233 29.2 27.7033 29.2C26.5833 29.2 25.7033 28.92 25.0633 28.32Z" fill="white"/>
</svg>
