<svg width="69" height="69" viewBox="0 0 69 69" fill="none" xmlns="http://www.w3.org/2000/svg">
<circle cx="34.5" cy="34.5" r="34.5" fill="#F4AB7A"/>
<path d="M37.8212 27.749L46.8672 24.2768L47.7862 26.6709C47.8426 26.8179 47.8383 26.9813 47.7743 27.1252C47.7103 27.2691 47.5917 27.3816 47.4447 27.4381L37.8212 31.1321L37.8212 27.749ZM43.8549 45.9835C43.975 45.9835 44.0923 45.9471 44.1913 45.8791C44.2902 45.811 44.3662 45.7146 44.4093 45.6025L45.3283 43.2082L37.8212 40.3266V43.7096L43.6421 45.944C43.7101 45.9701 43.7822 45.9835 43.8549 45.9835ZM50.7219 46.047L47.3185 41.3373L46.8625 42.5252C46.7878 42.7197 46.6632 42.8912 46.5013 43.0224C46.5342 43.2283 46.5119 43.4393 46.4369 43.6338L45.5179 46.0281C45.3888 46.3644 45.1608 46.6537 44.8639 46.8577C44.567 47.0618 44.2152 47.171 43.8549 47.171C43.8118 47.171 43.7698 47.1624 43.7271 47.1593L45.9463 50.2304L50.5886 46.876C50.7161 46.7837 50.8019 46.6445 50.8269 46.4891C50.8519 46.3336 50.8141 46.1746 50.7219 46.047ZM37.8162 19.7682L43.6421 17.5319C43.7149 17.5039 43.7925 17.4906 43.8705 17.4926C43.9484 17.4947 44.0252 17.512 44.0964 17.5438C44.1677 17.5755 44.232 17.6209 44.2856 17.6775C44.3393 17.734 44.3813 17.8006 44.4093 17.8734L46.4417 23.1681L37.8212 26.477V19.8674C37.8212 19.8339 37.8171 19.8015 37.8162 19.7682ZM40.3194 21.9946L40.8575 23.3963C40.8854 23.4692 40.9274 23.5358 40.981 23.5924C41.0347 23.649 41.099 23.6944 41.1702 23.7261C41.2415 23.7579 41.3183 23.7752 41.3963 23.7772C41.4742 23.7792 41.5518 23.7659 41.6246 23.7378L43.0264 23.1998C43.1734 23.1433 43.2919 23.0308 43.356 22.8869C43.42 22.7431 43.4243 22.5797 43.3679 22.4326L42.8298 21.0309C42.7733 20.8839 42.6608 20.7653 42.5169 20.7013C42.3731 20.6373 42.2097 20.633 42.0627 20.6894L40.6609 21.2275C40.5139 21.2839 40.3954 21.3964 40.3313 21.5403C40.2673 21.6842 40.263 21.8476 40.3194 21.9946ZM37.8212 44.9816V46.311L42.1212 52.2618C42.1669 52.325 42.2246 52.3786 42.2909 52.4195C42.3573 52.4604 42.4311 52.4878 42.508 52.5002C42.585 52.5126 42.6637 52.5097 42.7395 52.4917C42.8154 52.4737 42.8869 52.4409 42.9501 52.3953L44.9837 50.9258L41.7889 46.5047L37.8212 44.9816ZM45.7539 42.0995L37.8212 39.0546V32.3438L47.4447 36.0377C47.5917 36.0942 47.7102 36.2067 47.7743 36.3506C47.8383 36.4944 47.8426 36.6578 47.7862 36.8048L45.7539 42.0995ZM43.9929 37.336L42.5912 36.7979C42.4442 36.7415 42.2808 36.7458 42.1369 36.8098C41.9931 36.8739 41.8805 36.9924 41.8241 37.1394L41.286 38.5412C41.2296 38.6882 41.2338 38.8516 41.2979 38.9954C41.3619 39.1393 41.4805 39.2518 41.6275 39.3083L43.0292 39.8464C43.102 39.8744 43.1796 39.8878 43.2576 39.8857C43.3356 39.8837 43.4124 39.8664 43.4836 39.8347C43.5549 39.8029 43.6192 39.7575 43.6728 39.7009C43.7265 39.6443 43.7685 39.5777 43.7964 39.5048L44.3345 38.1031C44.3909 37.9561 44.3866 37.7927 44.3225 37.6488C44.2585 37.505 44.1399 37.3924 43.9929 37.336ZM29.8267 18.6353L30.2716 17.4924H23.5279L23.9727 18.6353L29.8267 18.6353ZM30.6139 46.1841H23.1856C22.9692 46.1841 22.7618 46.27 22.6088 46.423C22.4558 46.576 22.3698 46.7835 22.3698 46.9998C22.3698 47.2162 22.4558 47.4237 22.6088 47.5767C22.7618 47.7296 22.9692 47.8156 23.1856 47.8156H30.6139C30.8302 47.8156 31.0377 47.7296 31.1907 47.5767C31.3437 47.4237 31.4296 47.2162 31.4296 46.9998C31.4296 46.7835 31.3437 46.576 31.1907 46.423C31.0377 46.27 30.8302 46.1841 30.6139 46.1841ZM36.6337 19.8674V50.1328C36.633 50.7624 36.3825 51.3661 35.9373 51.8113C35.492 52.2566 34.8884 52.507 34.2587 52.5078H19.5408C18.9111 52.507 18.3074 52.2566 17.8622 51.8113C17.4169 51.3661 17.1665 50.7624 17.1658 50.1328V19.8674C17.1665 19.2378 17.4169 18.6341 17.8622 18.1889C18.3074 17.7436 18.9111 17.4932 19.5408 17.4924H22.2536L23.0131 19.4443C23.0565 19.5558 23.1326 19.6515 23.2314 19.7191C23.3301 19.7866 23.4469 19.8227 23.5666 19.8228H30.2329C30.3525 19.8227 30.4693 19.7866 30.5681 19.7191C30.6668 19.6516 30.7429 19.5559 30.7864 19.4445L31.5461 17.4924H34.2587C34.8884 17.4932 35.492 17.7436 35.9373 18.1889C36.3825 18.6341 36.633 19.2378 36.6337 19.8674ZM27.1253 32.1524L26.0137 30.7144L25.0744 31.4406L26.5747 33.3816C26.6244 33.446 26.6869 33.4995 26.7582 33.5387C26.8294 33.578 26.908 33.6021 26.989 33.6097C27.0076 33.6114 27.0261 33.6123 27.0444 33.6123C27.1897 33.6123 27.33 33.5589 27.4387 33.4624L31.4845 29.8684L30.6959 28.9807L27.1253 32.1524ZM22.0013 32.5113C22.0013 33.8105 22.5174 35.0564 23.436 35.975C24.3546 36.8937 25.6006 37.4098 26.8997 37.4098C28.1989 37.4098 29.4448 36.8937 30.3634 35.975C31.2821 35.0564 31.7982 33.8105 31.7982 32.5113H30.6107C30.6099 33.3108 30.3507 34.0886 29.8718 34.7287C29.3929 35.3689 28.7199 35.837 27.9532 36.0634C27.1864 36.2898 26.3671 36.2623 25.6172 35.985C24.8674 35.7077 24.2273 35.1955 23.7924 34.5246C23.3575 33.8538 23.1511 33.0604 23.2039 32.2627C23.2568 31.465 23.5661 30.7057 24.0857 30.0982C24.6053 29.4906 25.3074 29.0673 26.0872 28.8913C26.8671 28.7153 27.6829 28.7962 28.4131 29.1217L28.8978 28.0377C28.1518 27.7051 27.3345 27.5641 26.5201 27.6278C25.7058 27.6914 24.9203 27.9576 24.235 28.4021C23.5497 28.8466 22.9864 29.4554 22.5963 30.173C22.2062 30.8907 22.0016 31.6945 22.0013 32.5113ZM32.6172 46.9999C32.6166 46.4688 32.4053 45.9596 32.0297 45.584C31.6542 45.2085 31.145 44.9972 30.6139 44.9966H23.1856C22.6543 44.9966 22.1448 45.2077 21.7691 45.5833C21.3934 45.959 21.1823 46.4686 21.1823 46.9999C21.1823 47.5312 21.3934 48.0407 21.7691 48.4164C22.1448 48.7921 22.6543 49.0031 23.1856 49.0031H30.6139C31.145 49.0025 31.6542 48.7913 32.0297 48.4157C32.4053 48.0402 32.6166 47.531 32.6172 46.9999Z" fill="white"/>
</svg>
