<svg width="44" height="44" viewBox="0 0 44 44" fill="none" xmlns="http://www.w3.org/2000/svg">
<circle cx="22" cy="22" r="22" fill="#F4AB7A"/>
<path d="M14.32 24.78V19.34C14.32 16.46 15.52 15 17.92 15C20.32 15 21.54 16.46 21.54 19.34V24.78C21.54 27.74 20.32 29.2 17.92 29.2C15.52 29.2 14.32 27.74 14.32 24.78ZM19.58 27.1C19.9 26.58 20.08 25.72 20.08 24.5V19.7C20.08 18.5 19.9 17.62 19.58 17.1C19.24 16.58 18.68 16.32 17.92 16.32C17.14 16.32 16.58 16.58 16.26 17.1C15.94 17.62 15.78 18.5 15.78 19.7V24.5C15.78 25.72 15.94 26.58 16.26 27.1C16.58 27.62 17.14 27.88 17.92 27.88C18.68 27.88 19.24 27.62 19.58 27.1ZM24.0433 27.82L28.6833 21.18C29.2633 20.32 29.5633 19.52 29.5633 18.76V18.46C29.5633 17.8 29.3633 17.28 29.0033 16.88C28.6233 16.5 28.1233 16.3 27.5033 16.3C26.8633 16.3 26.3833 16.5 26.0233 16.88C25.6633 17.26 25.4833 17.82 25.4833 18.54V18.9H24.0433V18.46C24.0433 17.42 24.3433 16.6 24.9833 15.96C25.6233 15.32 26.4633 15 27.5433 15C28.2233 15 28.8433 15.16 29.3833 15.46C29.9033 15.76 30.3233 16.16 30.6033 16.68C30.8833 17.2 31.0433 17.78 31.0433 18.42V18.76C31.0433 19.32 30.9433 19.86 30.7433 20.36C30.5433 20.88 30.2433 21.4 29.8433 21.94L25.8433 27.7H31.0433V29H24.0433V27.82Z" fill="white"/>
</svg>
