<svg width="69" height="69" viewBox="0 0 69 69" fill="none" xmlns="http://www.w3.org/2000/svg">
<circle cx="34.5" cy="34.5" r="34.5" fill="#F4AB7A"/>
<path fill-rule="evenodd" clip-rule="evenodd" d="M45.4086 52.0801H19.0095C17.3504 52.0801 16.0006 50.7302 16.0006 49.0715V39.4077H48.4179V49.0716C48.4179 50.7302 47.0678 52.0801 45.4086 52.0801ZM30.3175 42.7494H19.306C18.7199 42.7494 18.7199 41.8588 19.306 41.8588H30.3171C30.9031 41.8588 30.9033 42.7494 30.3175 42.7494ZM30.3175 45.578H19.306C18.7199 45.578 18.7199 44.6873 19.306 44.6873H30.3171C30.9031 44.6873 30.9033 45.578 30.3175 45.578ZM30.3175 48.4069H19.306C18.7199 48.4069 18.7199 47.5163 19.306 47.5163H30.3171C30.9031 47.5163 30.9033 48.4069 30.3175 48.4069ZM44.4813 48.7391H43.4367H41.3746H39.3126H38.2683C37.6751 48.7391 37.1925 48.256 37.1925 47.6632V42.9343C37.1925 42.3412 37.6755 41.8584 38.2683 41.8584H44.4812C45.0744 41.8584 45.5571 42.3415 45.5571 42.9343V47.6632C45.5574 48.256 45.0744 48.7391 44.4813 48.7391ZM38.2683 42.7491C38.1678 42.7491 38.0831 42.8334 38.0831 42.9343V43.5119H38.8673V42.7491H38.2683ZM38.0831 44.4025V46.018H44.6665V44.4025H43.4367H41.3746H39.3126H38.0831ZM38.0831 46.9086V47.6632C38.0831 47.7637 38.1674 47.8484 38.2683 47.8484H38.8673V46.9086H38.0831ZM39.758 46.9086V47.8484H40.9293V46.9086H39.758ZM41.8199 46.9086V47.8484H42.9914V46.9086H41.8199ZM43.882 46.9086V47.8484H44.4813C44.5817 47.8484 44.6665 47.764 44.6665 47.6632V46.9086H43.882ZM44.6665 43.5119V42.9343C44.6665 42.8338 44.5821 42.7491 44.4813 42.7491H43.882V43.5119H44.6665ZM42.9914 43.5119V42.7491H41.8199V43.5119H42.9914ZM40.9293 43.5119V42.7491H39.758V43.5119H40.9293ZM16.0006 38.5167V35.844H48.4179V38.5167H16.0006ZM16.0006 34.9534V33.7062C16.0006 32.0471 17.3504 30.6973 19.0095 30.6973L45.4089 30.6974C47.068 30.6974 48.4178 32.0472 48.4178 33.7063V34.9534H16.0006Z" fill="white"/>
<path fill-rule="evenodd" clip-rule="evenodd" d="M49.2756 33.1984L52.4243 34.0349L49.92 43.3819C49.8143 43.7766 49.5853 44.178 49.3086 44.5191V33.7064C49.3086 33.5342 49.2973 33.3647 49.2756 33.1984ZM19.9971 29.8068L21.1091 25.6562L36.5994 29.8069L19.9971 29.8068ZM21.3396 24.796L22.0314 22.2141L53.3435 30.6044L52.6517 33.1861L49.0102 32.2104C48.4226 30.8004 47.0301 29.8069 45.4092 29.8069H40.0409L21.3396 24.796ZM22.2619 21.3539L22.5845 20.1496C23.0146 18.5445 24.6734 17.5939 26.2698 18.0221L51.7698 24.8547C53.3708 25.2837 54.326 26.9388 53.8967 28.5399L53.5741 29.7438L22.2619 21.3539Z" fill="white"/>
</svg>
